<?xml version="1.0" standalone="no"?>
<!DOCTYPE svg PUBLIC "-//W3C//DTD SVG 20010904//EN"
 "http://www.w3.org/TR/2001/REC-SVG-20010904/DTD/svg10.dtd">
<svg version="1.0" xmlns="http://www.w3.org/2000/svg"
 width="332.000000pt" height="332.000000pt" viewBox="0 0 332.000000 332.000000"
 preserveAspectRatio="xMidYMid meet">
<metadata>
Created by potrace 1.16, written by Peter Selinger 2001-2019
</metadata>
<g transform="translate(0.000000,332.000000) scale(0.100000,-0.100000)"
fill="#000000" stroke="none">
<path d="M1947 2867 c-29 -29 -80 -100 -114 -158 -86 -144 -147 -234 -160
-234 -6 0 -15 -4 -20 -9 -5 -5 -3 -6 5 -2 6 4 12 4 12 0 0 -10 -100 -133 -141
-172 -46 -45 -146 -111 -178 -118 -71 -15 -129 -52 -209 -133 -46 -46 -102
-109 -124 -139 -47 -63 -16 -48 -490 -238 -308 -123 -376 -154 -337 -154 5 0
27 -13 47 -28 20 -16 100 -74 176 -128 77 -54 158 -112 182 -129 23 -16 72
-52 109 -79 65 -47 70 -49 99 -37 96 39 146 36 214 -12 41 -29 55 -45 30 -32
-7 4 1 -6 17 -20 17 -15 23 -24 15 -19 -8 4 -1 -7 17 -26 18 -18 30 -37 27
-42 -3 -4 -1 -8 5 -8 13 0 42 -55 34 -64 -4 -3 -1 -6 5 -6 6 0 16 -17 23 -37
6 -21 16 -43 21 -50 5 -7 7 -17 4 -22 -4 -5 -2 -12 4 -16 5 -3 10 -14 10 -24
0 -10 9 -30 20 -44 11 -14 20 -34 20 -45 0 -11 7 -27 15 -36 8 -8 15 -19 15
-25 0 -15 34 -85 43 -89 4 -2 7 -12 7 -23 0 -11 7 -30 15 -43 12 -18 24 -23
54 -22 21 1 45 6 52 12 8 6 40 23 71 38 57 29 92 55 178 133 26 24 50 40 53
36 4 -3 7 1 7 11 0 10 5 14 12 10 6 -4 8 -3 4 4 -3 6 6 23 22 39 55 54 152
170 152 181 0 7 6 12 13 12 7 0 20 13 30 29 25 42 128 141 140 134 6 -3 7 -1
4 4 -7 12 70 82 107 98 13 6 29 15 37 21 43 32 161 42 202 17 7 -4 19 -8 27
-10 8 -1 20 -9 26 -17 6 -9 14 -13 18 -9 3 4 15 -3 26 -15 12 -12 24 -22 29
-22 4 0 17 -8 29 -18 17 -15 19 -21 9 -31 -7 -7 -7 -11 -2 -9 14 4 76 -23 71
-31 -2 -3 2 -12 10 -19 8 -7 14 -10 14 -6 0 4 9 -1 20 -11 11 -10 17 -22 13
-28 -3 -6 -1 -7 5 -3 7 4 12 2 12 -4 0 -6 4 -9 9 -6 8 5 58 -47 81 -83 3 -7
19 -14 33 -17 24 -4 27 -1 25 21 -1 14 -6 25 -10 25 -4 0 -8 9 -8 20 0 11 -5
20 -11 20 -6 0 -9 7 -5 15 3 8 -3 22 -12 31 -9 10 -16 18 -14 18 5 1 -7 33
-29 83 -10 24 -19 48 -19 55 0 7 -7 21 -15 31 -7 11 -11 26 -8 35 4 10 2 13
-5 8 -8 -5 -12 0 -12 13 0 11 -4 22 -9 26 -6 3 -10 13 -11 23 -2 53 -6 70 -13
69 -12 -3 -77 174 -70 187 3 6 2 8 -2 3 -10 -8 -37 62 -29 75 3 4 0 8 -6 8 -6
0 -8 5 -5 10 3 6 1 10 -6 10 -7 0 -10 2 -7 6 3 3 -2 22 -12 42 -10 20 -17 46
-15 59 1 12 -2 20 -6 17 -5 -3 -12 13 -15 36 -4 22 -11 40 -16 40 -5 0 -6 10
-3 21 5 13 3 19 -3 15 -10 -6 -79 190 -74 208 2 5 -1 12 -6 15 -10 7 -55 138
-55 161 0 8 -4 18 -10 21 -5 4 -9 18 -9 33 0 14 -4 24 -8 21 -9 -5 -31 65 -24
77 3 4 0 8 -6 8 -7 0 -9 7 -6 16 3 8 2 12 -4 9 -6 -3 -10 0 -10 7 0 7 -12 40
-26 73 -14 33 -26 65 -28 70 -1 6 -10 26 -18 45 -9 19 -22 50 -28 67 -7 19
-17 30 -23 26 -6 -4 -8 0 -4 11 4 10 3 15 -3 11 -5 -3 -12 6 -16 20 -3 14 -11
25 -16 25 -6 0 -7 7 -4 16 3 8 2 13 -3 10 -10 -6 -47 44 -43 57 1 5 -2 6 -7 3
-5 -4 -17 4 -25 16 -9 12 -16 18 -16 13 0 -5 -5 -4 -12 3 -7 7 -32 12 -56 12
-40 0 -48 -5 -95 -53z"/>
</g>
</svg>
